<svg xmlns="http://www.w3.org/2000/svg" viewBox="0 0 204.26 59.43"><defs><style>.cls-1{fill:#e5e5e5;}.cls-2{fill:#7d07f3;}.cls-3{opacity:0.2;}.cls-4{fill:#231f20;}.cls-5{fill:#c6b198;}.cls-6{fill:#ac05f1;}.cls-7{fill:#24d9b8;}.cls-8{fill:#fff;}.cls-9{fill:#5107f2;}.cls-10{fill:#d8f205;}</style></defs><g id="Layer_2" data-name="Layer 2"><g id="Content"><path class="cls-1" d="M73.62,19.59H78v7.17l5.11-7.17h5.37l-6.64,8.6,6.91,9H83.21L78,29.77v7.39H73.62Z"/><path class="cls-1" d="M90.41,38.45h4c.4.89,1.1,1.24,2.39,1.24,1.77,0,2.55-.84,2.55-2.85V35.52a3.78,3.78,0,0,1-3.3,1.77c-2.8,0-5.78-1.88-5.78-6.74V23.89h4v6.66c0,2.1,1,3,2.53,3s2.52-.94,2.52-3V23.89h4V36.7c0,4.63-3,6.48-6.58,6.48C93.68,43.18,91.08,41.73,90.41,38.45Z"/><path class="cls-1" d="M114.1,19.59H121c4.78,0,6.9,2.6,6.9,6.18S125.79,32,121,32h-2.56v5.19H114.1Zm7,8.35c1.85,0,2.42-.91,2.42-2.17s-.57-2.15-2.42-2.15h-2.64v4.32Z"/><path class="cls-1" d="M129.25,30.52a7.11,7.11,0,0,1,14.22,0v1.13h-10a2.75,2.75,0,0,0,3,2.26,2.83,2.83,0,0,0,2.53-1h4.16a6.68,6.68,0,0,1-6.69,4.57A6.82,6.82,0,0,1,129.25,30.52Zm10.08-1.42a2.8,2.8,0,0,0-2.93-2,2.72,2.72,0,0,0-2.87,2Z"/><path class="cls-1" d="M145,30.52a6.82,6.82,0,0,1,7.15-7,6.67,6.67,0,0,1,6.93,5.56H155a3.1,3.1,0,0,0-5.91,1.42A3.1,3.1,0,0,0,155,32h4.08a6.67,6.67,0,0,1-6.93,5.56A6.82,6.82,0,0,1,145,30.52Z"/><path class="cls-1" d="M160.6,30.52a7.15,7.15,0,0,1,14.3,0,7.15,7.15,0,0,1-14.3,0Zm10.22,0a3.07,3.07,0,1,0-6.13,0,3.07,3.07,0,1,0,6.13,0Z"/><path class="cls-1" d="M177,29.61c0-4.14,2.42-6.07,6-6.07s5.94,1.9,6,6.1v.08h-4v-.11c0-1.77-.8-2.31-1.93-2.31s-1.94.54-1.94,2.31v7.55h-4Z"/><path class="cls-1" d="M190,30.36a6.44,6.44,0,0,1,6.45-6.82,4.39,4.39,0,0,1,3.76,1.8V18.08h4V30.39a6.7,6.7,0,0,1-7.06,7.12A6.83,6.83,0,0,1,190,30.36Zm10.21.16a3.06,3.06,0,1,0-6.12,0,3.06,3.06,0,1,0,6.12,0Z"/><g id="Layer_1-2" data-name="Layer 1"><circle class="cls-2" cx="29.72" cy="29.72" r="29.72"/><g class="cls-3"><path class="cls-4" d="M48.44,44.86a1.85,1.85,0,0,1-1.85,1.86H13.16a1.86,1.86,0,0,1-1.86-1.86h0A1.85,1.85,0,0,1,13.16,43H46.59a1.85,1.85,0,0,1,1.85,1.85Z"/></g><path class="cls-5" d="M48.44,43a1.85,1.85,0,0,1-1.85,1.85H13.16A1.85,1.85,0,0,1,11.3,43h0a1.86,1.86,0,0,1,1.86-1.86H46.59A1.85,1.85,0,0,1,48.44,43Z"/><path class="cls-6" d="M21.76,18.86H18a2.78,2.78,0,0,0-2.78,2.79v19.5h9.28V21.65A2.78,2.78,0,0,0,21.76,18.86Z"/><path class="cls-7" d="M42.19,15.15H38.47a2.78,2.78,0,0,0-2.78,2.78V41.15H45V17.93A2.78,2.78,0,0,0,42.19,15.15Z"/><rect class="cls-5" x="15.26" y="22.58" width="9.29" height="2.79"/><rect class="cls-5" x="15.26" y="34.65" width="9.29" height="2.79"/><rect class="cls-8" x="35.69" y="34.65" width="9.29" height="2.79"/><rect class="cls-8" x="35.69" y="18.86" width="9.29" height="2.79"/><g class="cls-3"><path class="cls-4" d="M37.54,37.43V15.32a2.76,2.76,0,0,0-1.85,2.61V41.15h1.85V37.43Z"/></g><g class="cls-3"><path class="cls-4" d="M24.54,37.43V21.65A2.78,2.78,0,0,0,22.69,19V41.15h1.85V37.43Z"/></g><path class="cls-9" d="M32.9,11.43H27.33a2.79,2.79,0,0,0-2.79,2.79V41.15H35.69V14.22A2.79,2.79,0,0,0,32.9,11.43Z"/><rect class="cls-10" x="24.54" y="15.15" width="11.14" height="2.79"/><rect class="cls-10" x="24.54" y="34.65" width="11.14" height="2.79"/></g></g></g></svg>